<svg width="auto" height="32" viewBox="0 0 856 228"  xmlns="http://www.w3.org/2000/svg">
	<path d="M16.3344 207V78.2928H57.4656C64.1568 78.2928 70.2576 78.8832 75.768 80.064C81.4096 81.1136 86.264 82.8848 90.3312 85.3776C94.5296 87.7392 97.744 90.9536 99.9744 95.0208C102.336 99.088 103.517 104.074 103.517 109.978C103.517 116.144 101.942 121.851 98.7936 127.099C95.6448 132.347 91.2496 135.955 85.608 137.923V138.71C92.6928 140.285 98.5312 143.63 103.123 148.747C107.846 153.733 110.208 160.555 110.208 169.214C110.208 175.643 108.962 181.219 106.469 185.942C103.976 190.666 100.499 194.602 96.0384 197.75C91.7088 200.899 86.5264 203.261 80.4912 204.835C74.456 206.278 67.896 207 60.8112 207H16.3344ZM39.1632 131.429H55.4976C64.5504 131.429 71.0448 129.789 74.9808 126.509C79.048 123.229 81.0816 118.834 81.0816 113.323C81.0816 107.026 78.9824 102.565 74.784 99.9408C70.5856 97.3168 64.288 96.0048 55.8912 96.0048H39.1632V131.429ZM39.1632 189.288H58.4496C67.896 189.288 75.1776 187.582 80.2944 184.171C85.4112 180.629 87.9696 175.25 87.9696 168.034C87.9696 161.211 85.4768 156.291 80.4912 153.274C75.5056 150.125 68.1584 148.55 58.4496 148.55H39.1632V189.288Z"/>
	<path d="M256.334 207V78.2928H299.827C306.518 78.2928 312.75 78.9488 318.523 80.2608C324.296 81.5728 329.282 83.7376 333.48 86.7552C337.678 89.6416 340.958 93.512 343.32 98.3664C345.813 103.221 347.059 109.256 347.059 116.472C347.059 126.312 344.698 134.25 339.974 140.285C335.382 146.32 329.216 150.65 321.475 153.274L352.176 207H326.592L298.843 156.619H279.163V207H256.334ZM279.163 138.514H297.466C306.256 138.514 312.947 136.677 317.539 133.003C322.262 129.33 324.624 123.819 324.624 116.472C324.624 108.994 322.262 103.811 317.539 100.925C312.947 98.0384 306.256 96.5952 297.466 96.5952H279.163V138.514ZM378.704 207V78.2928H402.123L442.27 150.715L455.456 178.07H456.243C455.718 171.379 455.062 164.229 454.275 156.619C453.619 148.878 453.291 141.4 453.291 134.184V78.2928H475.136V207H451.717L411.57 134.578L398.384 107.222H397.597C398.122 114.045 398.712 121.195 399.368 128.674C400.155 136.152 400.549 143.499 400.549 150.715V207H378.704ZM551.347 209.362C542.688 209.362 534.291 207.722 526.156 204.442C518.153 201.162 511.068 196.504 504.902 190.469L518.284 174.922C522.876 179.251 528.124 182.794 534.028 185.549C539.932 188.173 545.836 189.485 551.74 189.485C559.088 189.485 564.664 187.976 568.468 184.958C572.273 181.941 574.176 177.939 574.176 172.954C574.176 170.33 573.651 168.099 572.601 166.262C571.683 164.426 570.305 162.851 568.468 161.539C566.763 160.096 564.664 158.784 562.171 157.603C559.809 156.422 557.185 155.242 554.299 154.061L536.587 146.386C533.438 145.074 530.289 143.434 527.14 141.466C524.123 139.498 521.368 137.136 518.875 134.381C516.382 131.626 514.348 128.411 512.774 124.738C511.331 121.064 510.609 116.866 510.609 112.142C510.609 107.026 511.659 102.302 513.758 97.9728C515.988 93.512 519.006 89.6416 522.811 86.3616C526.616 83.0816 531.142 80.5232 536.39 78.6864C541.769 76.8496 547.608 75.9312 553.905 75.9312C561.384 75.9312 568.6 77.44 575.553 80.4576C582.507 83.344 588.476 87.28 593.462 92.2656L581.851 106.829C577.652 103.418 573.323 100.728 568.862 98.76C564.401 96.792 559.416 95.808 553.905 95.808C547.739 95.808 542.819 97.1856 539.145 99.9408C535.472 102.565 533.635 106.238 533.635 110.962C533.635 113.454 534.16 115.619 535.209 117.456C536.39 119.162 537.899 120.736 539.736 122.179C541.704 123.491 543.934 124.738 546.427 125.918C548.92 126.968 551.478 128.018 554.102 129.067L571.617 136.349C575.422 137.923 578.899 139.76 582.048 141.859C585.196 143.958 587.886 146.386 590.116 149.141C592.478 151.896 594.315 155.11 595.627 158.784C596.939 162.326 597.595 166.459 597.595 171.182C597.595 176.43 596.545 181.35 594.446 185.942C592.347 190.534 589.264 194.602 585.196 198.144C581.26 201.555 576.406 204.31 570.633 206.41C564.992 208.378 558.563 209.362 551.347 209.362ZM626.903 207V78.2928H668.034C674.725 78.2928 680.826 78.8832 686.336 80.064C691.978 81.1136 696.832 82.8848 700.899 85.3776C705.098 87.7392 708.312 90.9536 710.543 95.0208C712.904 99.088 714.085 104.074 714.085 109.978C714.085 116.144 712.511 121.851 709.362 127.099C706.213 132.347 701.818 135.955 696.176 137.923V138.71C703.261 140.285 709.099 143.63 713.691 148.747C718.415 153.733 720.776 160.555 720.776 169.214C720.776 175.643 719.53 181.219 717.037 185.942C714.544 190.666 711.067 194.602 706.607 197.75C702.277 200.899 697.095 203.261 691.059 204.835C685.024 206.278 678.464 207 671.379 207H626.903ZM649.731 131.429H666.066C675.119 131.429 681.613 129.789 685.549 126.509C689.616 123.229 691.65 118.834 691.65 113.323C691.65 107.026 689.551 102.565 685.352 99.9408C681.154 97.3168 674.856 96.0048 666.459 96.0048H649.731V131.429ZM649.731 189.288H669.018C678.464 189.288 685.746 187.582 690.863 184.171C695.979 180.629 698.538 175.25 698.538 168.034C698.538 161.211 696.045 156.291 691.059 153.274C686.074 150.125 678.727 148.55 669.018 148.55H649.731V189.288ZM768.609 207V159.178L730.037 78.2928H754.44L768.413 111.158C770.249 116.013 772.086 120.736 773.923 125.328C775.76 129.789 777.728 134.512 779.827 139.498H780.614C782.713 134.512 784.747 129.789 786.715 125.328C788.683 120.736 790.585 116.013 792.422 111.158L806.395 78.2928H830.208L791.438 159.178V207H768.609Z" />
	<path d="M162.5 134L157.5 152H201L195.5 134H162.5Z" fill="#666666"/>
	<path d="M165.57 0L123 129H147.5L179.253 18L210 129H235L192.937 0H165.57Z" />
</svg>
